<?xml version="1.0" standalone="no"?>
<!DOCTYPE svg PUBLIC "-//W3C//DTD SVG 20010904//EN"
 "http://www.w3.org/TR/2001/REC-SVG-20010904/DTD/svg10.dtd">
<svg version="1.0" xmlns="http://www.w3.org/2000/svg"
 width="630.000000pt" height="630.000000pt" viewBox="0 0 630.000000 630.000000"
 preserveAspectRatio="xMidYMid meet">
<metadata>
Created by potrace 1.11, written by Peter Selinger 2001-2013
</metadata>
<g transform="translate(0.000000,630.000000) scale(0.100000,-0.100000)"
fill="#000000" stroke="none">
<path d="M2705 6080 c-147 -11 -419 -91 -650 -192 -198 -87 -628 -451 -758
-643 -40 -60 -51 -86 -67 -165 -22 -111 -50 -418 -50 -559 l0 -97 -57 -57 -56
-56 3 -498 c1 -274 5 -618 9 -765 l6 -267 33 -34 c29 -30 36 -48 68 -198 59
-275 182 -800 202 -864 18 -60 205 -394 309 -554 63 -97 198 -261 341 -413
105 -113 224 -245 305 -341 75 -88 101 -104 233 -137 103 -26 150 -32 345 -42
309 -15 462 -4 573 42 85 36 59 12 408 367 114 116 224 243 266 308 14 22 40
58 58 80 34 43 348 563 389 646 26 50 44 124 150 620 83 389 79 375 129 425
l43 42 6 158 c10 221 8 1338 -2 1397 -6 37 -18 58 -48 90 -22 23 -43 50 -46
60 -4 10 -18 188 -32 395 -14 207 -28 385 -31 394 -7 23 -268 275 -396 382
-128 108 -288 217 -393 268 -103 50 -337 125 -540 174 l-160 39 -245 1 c-135
1 -290 -2 -345 -6z m-336 -777 c6 -21 61 -291 122 -600 110 -553 112 -562 138
-572 151 -61 505 -66 757 -11 l51 11 113 565 c61 311 116 581 122 601 l10 35
71 -6 c313 -31 617 -168 850 -386 48 -45 87 -89 87 -97 0 -9 -18 4 -41 31 -24
27 -47 45 -55 42 -8 -3 -13 -2 -13 2 3 19 -2 32 -12 32 -6 0 -8 -7 -5 -16 3
-9 2 -12 -5 -9 -6 4 -8 13 -5 21 6 16 -10 19 -19 3 -4 -5 0 -18 9 -28 14 -16
14 -19 -2 -35 -16 -17 -16 -18 7 -11 16 5 21 4 17 -4 -4 -6 0 -23 8 -38 8 -16
15 -23 16 -18 0 6 5 3 10 -5 5 -8 9 -24 9 -35 -1 -17 -2 -16 -10 5 -11 33 -2
-38 12 -94 8 -29 13 -36 20 -25 13 20 11 1 -6 -79 -35 -169 -75 -576 -91 -939
l-7 -152 -76 -32 c-127 -53 -367 -127 -533 -164 -624 -140 -1291 -126 -1948
41 -148 37 -160 39 -160 24 0 -6 -9 -29 -19 -50 -13 -27 -15 -40 -8 -41 7 0 0
-6 -15 -12 -23 -11 13 -20 308 -77 184 -35 339 -67 345 -70 7 -5 6 -33 -4 -90
-11 -63 -12 -88 -3 -102 6 -10 13 -18 17 -18 3 0 13 42 23 94 l18 93 41 -3
c23 -2 127 -9 232 -15 104 -6 192 -13 195 -16 3 -3 -47 -3 -110 0 -63 2 -90 1
-60 -2 55 -7 55 -7 15 -11 -31 -4 -39 -9 -37 -22 3 -20 -14 -25 -21 -5 -2 6
-4 0 -4 -15 0 -17 5 -28 13 -28 10 0 14 -16 14 -58 0 -47 4 -63 21 -78 17 -16
20 -28 17 -81 -2 -51 1 -67 20 -92 12 -17 22 -35 22 -40 0 -6 17 -19 38 -30
22 -12 30 -20 20 -21 -24 0 -23 -6 7 -35 21 -22 33 -25 100 -25 45 0 75 -4 75
-10 0 -7 6 -7 19 0 13 7 20 7 23 -1 6 -17 38 1 38 21 0 10 9 22 20 25 25 8 26
25 3 25 -11 1 -3 9 20 21 41 22 48 39 16 39 -14 0 -19 5 -17 17 4 24 38 30 38
8 0 -14 3 -15 15 -5 8 7 13 16 10 20 -3 5 -2 16 1 25 5 13 8 14 15 3 8 -12 4
33 -6 85 -2 9 1 17 7 17 26 0 38 31 38 99 0 55 3 71 14 71 10 0 16 13 18 38 3
35 1 37 -37 49 l-40 12 50 -5 c36 -3 44 -2 30 5 -14 7 7 10 72 10 50 1 98 3
106 7 11 4 18 -16 32 -86 19 -90 19 -90 39 -71 18 19 19 25 8 97 -13 81 -11
94 17 94 9 0 201 36 426 80 224 44 413 79 418 77 6 -2 24 -43 41 -93 30 -86
32 -89 64 -92 17 -2 32 -6 32 -10 0 -8 -105 -68 -165 -95 -30 -13 -33 -16 -12
-12 19 4 26 2 22 -5 -3 -5 2 -11 12 -11 17 -1 17 -2 1 -6 -10 -2 -18 -11 -18
-19 0 -8 -4 -13 -9 -10 -5 4 -12 -7 -16 -24 -4 -16 -11 -30 -17 -30 -6 0 -8
-3 -5 -7 4 -3 0 -14 -8 -23 -27 -30 -18 -187 13 -210 10 -7 42 -62 49 -83 4
-12 12 -16 24 -12 15 5 18 3 12 -12 -6 -16 -4 -16 18 2 37 30 18 10 -94 -104
-56 -58 -95 -101 -87 -95 10 5 9 2 -2 -8 -21 -19 -26 -47 -5 -29 23 18 20 -94
-3 -147 -11 -24 -20 -50 -20 -56 0 -15 -103 -88 -145 -103 -26 -9 -35 -9 -39
0 -2 7 -5 4 -5 -5 -1 -10 -6 -18 -12 -18 -6 0 -9 7 -5 15 3 8 1 15 -4 15 -6 0
-10 -6 -10 -14 0 -7 -7 -19 -15 -26 -16 -13 -21 -1 -7 15 10 12 33 65 28 65
-2 0 -36 -50 -76 -110 -122 -188 -260 -472 -316 -652 l-18 -58 -651 0 -651 0
-60 -82 c-32 -45 -62 -86 -65 -91 -7 -10 -97 58 -130 98 -19 22 -16 36 3 17
18 -18 31 -14 25 7 -3 15 -1 18 11 14 9 -4 13 -2 9 4 -4 6 8 23 25 37 18 14
41 33 51 42 11 9 27 14 38 11 10 -3 17 -1 13 4 -3 5 0 9 5 9 6 0 11 8 12 18 0
13 2 14 6 2 3 -8 11 -19 17 -23 7 -6 4 -7 -6 -3 -24 7 -23 4 13 -30 30 -28 31
-28 18 -4 -7 14 -14 31 -15 37 -4 23 -159 316 -224 423 -110 182 -200 311
-212 304 -7 -4 -8 -3 -4 4 8 14 -69 122 -87 122 -7 0 -3 -7 7 -15 12 -9 15
-15 7 -15 -7 0 -11 -6 -8 -13 3 -8 -1 -14 -8 -14 -10 0 -11 5 -4 18 6 12 5 20
-1 24 -7 5 -8 11 -1 19 7 8 -18 44 -88 126 -54 63 -121 136 -147 161 -50 47
-97 68 -109 48 -4 -6 6 -56 21 -111 20 -70 36 -109 56 -130 15 -17 28 -33 28
-36 0 -3 6 -13 14 -21 8 -9 26 -38 42 -66 27 -49 26 -48 -53 35 -45 47 -93 92
-108 100 -21 11 -56 72 -156 273 l-130 258 37 91 c68 170 180 665 191 848 7
103 -9 348 -43 685 l-26 250 22 100 c12 55 24 109 26 120 7 36 78 119 149 173
159 119 422 223 718 282 122 24 115 25 126 -17z m60 -198 c-1 -11 -9 18 -20
65 -10 47 -18 94 -18 105 1 11 9 -18 20 -65 10 -47 18 -94 18 -105z m1223 160
c-2 -14 -8 -25 -13 -25 -10 0 -12 34 -2 43 13 14 20 6 15 -18z m-12 -67 c0 -5
-4 -8 -10 -8 -5 0 -10 10 -10 23 0 18 2 19 10 7 5 -8 10 -18 10 -22z m-10 -35
c0 -5 -5 -15 -10 -23 -8 -12 -10 -11 -10 8 0 12 5 22 10 22 6 0 10 -3 10 -7z
m-23 -75 c-3 -7 -5 -2 -5 12 0 14 2 19 5 13 2 -7 2 -19 0 -25z m-1170 -30 c-3
-8 -6 -5 -6 6 -1 11 2 17 5 13 3 -3 4 -12 1 -19z m1166 -8 c3 -11 1 -20 -4
-20 -5 0 -9 9 -9 20 0 11 2 20 4 20 2 0 6 -9 9 -20z m-1156 -52 c-3 -7 -5 -2
-5 12 0 14 2 19 5 13 2 -7 2 -19 0 -25z m1140 -10 c-3 -7 -5 -2 -5 12 0 14 2
19 5 13 2 -7 2 -19 0 -25z m-1124 -53 c5 -28 4 -34 -3 -20 -8 19 -14 73 -6 64
2 -2 6 -22 9 -44z m1114 3 c-3 -8 -6 -5 -6 6 -1 11 2 17 5 13 3 -3 4 -12 1
-19z m2 -61 c1 -5 -3 -5 -9 -2 -5 3 -10 16 -9 28 0 21 1 21 9 2 5 -11 9 -24 9
-28z m-1091 -62 c0 -16 -2 -15 -8 5 -4 14 -8 36 -8 50 0 22 1 22 8 -5 4 -16 8
-39 8 -50z m2119 38 c-3 -10 -5 -4 -5 12 0 17 2 24 5 18 2 -7 2 -21 0 -30z
m-1037 0 c0 -5 -5 -15 -10 -23 -8 -12 -10 -11 -10 8 0 12 5 22 10 22 6 0 10
-3 10 -7z m-25 -108 c-3 -26 -9 -45 -12 -42 -2 3 -1 26 2 52 4 25 10 44 12 41
3 -3 2 -26 -2 -51z m-1048 13 c-3 -7 -5 -2 -5 12 0 14 2 19 5 13 2 -7 2 -19 0
-25z m10 -55 c-3 -10 -5 -4 -5 12 0 17 2 24 5 18 2 -7 2 -21 0 -30z m2123 -3
c0 -13 -1 -13 -10 0 -5 8 -10 22 -10 30 0 13 1 13 10 0 5 -8 10 -22 10 -30z
m17 18 c-3 -8 -6 -5 -6 6 -1 11 2 17 5 13 3 -3 4 -12 1 -19z m-1120 -60 c-3
-7 -5 -2 -5 12 0 14 2 19 5 13 2 -7 2 -19 0 -25z m-1010 0 c-3 -8 -6 -5 -6 6
-1 11 2 17 5 13 3 -3 4 -12 1 -19z m2190 -30 c-3 -8 -6 -5 -6 6 -1 11 2 17 5
13 3 -3 4 -12 1 -19z m-2180 -20 c-3 -8 -6 -5 -6 6 -1 11 2 17 5 13 3 -3 4
-12 1 -19z m983 -38 c-5 -22 -8 -27 -9 -13 -1 21 9 56 14 51 2 -2 0 -19 -5
-38z m1187 8 c-3 -8 -6 -5 -6 6 -1 11 2 17 5 13 3 -3 4 -12 1 -19z m-10 -65
c-3 -10 -5 -4 -5 12 0 17 2 24 5 18 2 -7 2 -21 0 -30z m-2140 -5 c-3 -8 -6 -5
-6 6 -1 11 2 17 5 13 3 -3 4 -12 1 -19z m950 -10 c-3 -7 -5 -2 -5 12 0 14 2
19 5 13 2 -7 2 -19 0 -25z m-10 -50 c-3 -7 -5 -2 -5 12 0 14 2 19 5 13 2 -7 2
-19 0 -25z m1190 -45 c-3 -10 -5 -2 -5 17 0 19 2 27 5 18 2 -10 2 -26 0 -35z
m-2110 -5 c-3 -7 -5 -2 -5 12 0 14 2 19 5 13 2 -7 2 -19 0 -25z m2100 -120
c-2 -13 -4 -3 -4 22 0 25 2 35 4 23 2 -13 2 -33 0 -45z m-2080 30 c-3 -8 -6
-5 -6 6 -1 11 2 17 5 13 3 -3 4 -12 1 -19z m870 -10 c-3 -8 -6 -5 -6 6 -1 11
2 17 5 13 3 -3 4 -12 1 -19z m1200 -200 c-2 -18 -4 -6 -4 27 0 33 2 48 4 33 2
-15 2 -42 0 -60z m-10 -235 c-2 -21 -4 -6 -4 32 0 39 2 55 4 38 2 -18 2 -50 0
-70z m94 -706 c21 -102 62 -242 97 -334 l20 -52 -62 -37 c-35 -21 -54 -28 -44
-17 13 15 15 22 6 31 -9 9 -7 13 5 17 9 4 13 13 10 22 -4 9 -2 14 3 10 5 -3
10 3 10 13 0 10 -4 16 -8 14 -12 -8 -9 11 4 24 9 9 9 15 -1 25 -11 10 -12 9
-6 -2 5 -9 4 -12 -3 -8 -5 4 -8 16 -5 27 3 11 -1 35 -10 52 -8 18 -18 48 -22
66 -4 18 -11 29 -17 26 -6 -4 -8 2 -3 16 5 15 4 20 -4 16 -6 -4 -14 7 -20 26
-5 18 -10 25 -10 16 -1 -10 -5 -18 -11 -18 -5 0 -6 8 -3 18 6 15 5 16 -12 2
-17 -14 -18 -14 -6 8 14 26 4 30 -15 5 -12 -17 20 68 62 162 l18 40 3 -35 c2
-19 13 -79 24 -133z m-1523 -94 c-10 -2 -26 -2 -35 0 -10 3 -2 5 17 5 19 0 27
-2 18 -5z m-75 -10 c-7 -2 -19 -2 -25 0 -7 3 -2 5 12 5 14 0 19 -2 13 -5z m2
-493 c3 -5 -3 -10 -14 -10 -12 0 -21 5 -21 10 0 6 6 10 14 10 8 0 18 -4 21
-10z m-1375 -374 c0 -2 -8 -10 -17 -17 -16 -13 -17 -12 -4 4 13 16 21 21 21
13z m2364 -928 c-21 -23 -108 -112 -192 -197 l-153 -156 -31 35 c-17 19 -51
57 -75 84 -24 27 -45 47 -48 45 -2 -3 -27 -78 -55 -169 -27 -90 -51 -164 -53
-165 -1 -1 -55 0 -119 3 l-118 5 0 32 c0 40 1 39 -170 56 -131 12 -273 7 -328
-12 -27 -9 -32 -16 -32 -43 l0 -32 -192 -11 c-209 -11 -211 -11 -215 42 -1 16
-7 31 -13 33 -5 2 -10 15 -10 28 0 13 -3 24 -8 24 -4 0 -7 25 -7 55 l1 55 -26
-25 c-14 -14 -31 -25 -37 -25 -13 0 -356 355 -361 373 -4 13 52 -43 236 -238
l123 -130 42 50 c23 28 58 67 77 88 l35 38 628 -7 628 -7 61 -84 c34 -45 65
-83 68 -83 3 0 89 88 190 195 101 107 186 193 188 190 3 -3 -12 -24 -34 -47z
m-2116 -33 c19 -16 40 -35 47 -42 9 -9 15 -9 26 0 11 10 11 9 0 -6 -16 -20
-11 -23 -105 67 -50 49 -34 39 32 -19z"/>
<path d="M1892 5107 c-30 -32 -28 -42 3 -12 13 14 36 25 50 25 14 0 37 -11 50
-25 14 -13 25 -20 25 -15 0 17 -53 50 -80 50 -15 0 -36 -10 -48 -23z"/>
<path d="M4044 5114 c-18 -15 -18 -15 3 -5 37 19 72 13 100 -16 21 -23 24 -24
14 -6 -22 43 -80 56 -117 27z"/>
<path d="M4070 5060 c-9 -6 -10 -10 -3 -10 6 0 15 5 18 10 8 12 4 12 -15 0z"/>
<path d="M4468 5018 c12 -13 19 -28 15 -32 -4 -4 1 -4 11 0 15 6 17 4 11 -6
-5 -9 -4 -11 3 -6 8 5 10 -3 6 -26 l-6 -33 17 30 c15 28 15 30 -2 42 -10 7
-25 18 -33 26 -28 26 -45 30 -22 5z"/>
<path d="M1910 5010 c8 -5 26 -10 39 -10 32 0 24 6 -19 14 -25 4 -31 3 -20 -4z"/>
<path d="M4083 5003 c9 -2 25 -2 35 0 9 3 1 5 -18 5 -19 0 -27 -2 -17 -5z"/>
<path d="M4601 4594 c0 -11 3 -14 6 -6 3 7 2 16 -1 19 -3 4 -6 -2 -5 -13z"/>
<path d="M1401 4514 c0 -11 3 -14 6 -6 3 7 2 16 -1 19 -3 4 -6 -2 -5 -13z"/>
<path d="M1412 4415 c0 -16 2 -22 5 -12 2 9 2 23 0 30 -3 6 -5 -1 -5 -18z"/>
<path d="M1422 4305 c0 -16 2 -22 5 -12 2 9 2 23 0 30 -3 6 -5 -1 -5 -18z"/>
<path d="M1432 4200 c0 -19 2 -27 5 -17 2 9 2 25 0 35 -3 9 -5 1 -5 -18z"/>
<path d="M1443 4090 c0 -25 2 -35 4 -22 2 12 2 32 0 45 -2 12 -4 2 -4 -23z"/>
<path d="M1453 3995 c0 -22 2 -30 4 -17 2 12 2 30 0 40 -3 9 -5 -1 -4 -23z"/>
<path d="M1463 3900 c0 -30 2 -43 4 -27 2 15 2 39 0 55 -2 15 -4 2 -4 -28z"/>
<path d="M1470 3805 c0 -36 29 -318 32 -319 72 -27 127 -43 123 -35 -4 5 2 9
11 9 14 0 15 3 6 12 -10 10 -15 10 -21 -1 -7 -11 -13 -11 -32 3 l-24 17 26 -6
c35 -8 53 15 46 58 -7 43 -86 134 -100 115 -6 -9 -7 -7 -3 5 8 26 -2 41 -19
27 -10 -8 -15 -6 -20 10 -4 12 -4 24 -1 27 3 4 6 -1 6 -10 0 -9 5 -17 10 -17
11 0 12 15 4 47 -4 13 -10 20 -15 17 -5 -3 -9 5 -9 18 0 13 -5 30 -10 38 -7
12 -10 8 -10 -15z"/>
<path d="M1550 3680 c0 -5 5 -10 10 -10 6 0 10 5 10 10 0 6 -4 10 -10 10 -5 0
-10 -4 -10 -10z"/>
<path d="M1468 3202 c-57 -134 -56 -124 -18 -120 33 3 34 5 66 100 18 53 30
99 26 102 -20 21 -40 -1 -74 -82z"/>
<path d="M1648 3263 c7 -3 16 -2 19 1 4 3 -2 6 -13 5 -11 0 -14 -3 -6 -6z"/>
<path d="M1698 3253 c6 -2 18 -2 25 0 6 3 1 5 -13 5 -14 0 -19 -2 -12 -5z"/>
<path d="M3398 3053 c7 -3 16 -2 19 1 4 3 -2 6 -13 5 -11 0 -14 -3 -6 -6z"/>
<path d="M1387 2898 c-45 -96 -59 -185 -32 -212 8 -8 15 -21 15 -28 0 -10 3
-9 10 2 6 10 10 11 10 3 0 -19 45 -15 63 5 29 31 16 169 -22 247 l-18 38 -26
-55z"/>
<path d="M2730 2820 c0 -16 5 -30 10 -30 6 0 10 14 10 30 0 17 -4 30 -10 30
-5 0 -10 -13 -10 -30z"/>
<path d="M2943 2466 c5 -16 27 -19 27 -3 0 7 -7 14 -15 14 -9 0 -14 -5 -12
-11z"/>
<path d="M3008 2463 c12 -2 32 -2 45 0 12 2 2 4 -23 4 -25 0 -35 -2 -22 -4z"/>
</g>
</svg>
