<!DOCTYPE svg PUBLIC "-//W3C//DTD SVG 20010904//EN" "http://www.w3.org/TR/2001/REC-SVG-20010904/DTD/svg10.dtd">
<svg version="1.0" xmlns="http://www.w3.org/2000/svg" width="160px" height="160px" viewBox="0 0 1600 1600" preserveAspectRatio="xMidYMid meet">
<g id="layer101" fill="#1b1b1b" stroke="none">
 <path d="M250 1495 c52 -8 114 -18 138 -21 l43 -5 -6 -57 c-14 -114 -44 -251 -65 -292 -12 -24 -39 -65 -60 -91 l-38 -48 5 -143 c5 -143 21 -231 50 -277 15 -24 14 -26 -17 -54 -25 -23 -34 -39 -38 -75 l-5 -46 29 18 c16 10 42 32 58 48 15 16 31 27 34 23 3 -3 -31 -40 -75 -83 -62 -58 -84 -87 -92 -117 -13 -49 -14 -135 -2 -154 6 -10 8 0 4 27 -6 43 10 60 21 24 4 -11 18 -30 32 -43 l26 -24 -25 38 c-47 70 -43 153 11 200 20 18 21 18 36 -5 8 -12 18 -36 22 -53 7 -29 41 -105 48 -105 1 0 -5 24 -15 53 -10 28 -18 63 -19 76 0 21 3 23 38 17 37 -6 36 -5 -15 21 -29 15 -53 30 -53 33 0 11 60 41 70 35 6 -3 10 3 10 13 0 11 6 25 14 31 12 10 19 8 35 -8 12 -12 21 -28 21 -37 0 -8 5 -12 11 -9 19 13 -2 -87 -32 -147 -34 -68 -38 -90 -6 -33 31 54 55 53 85 -5 12 -24 22 -36 22 -27 0 10 -11 39 -25 65 -28 52 -34 132 -12 150 20 17 77 -16 101 -57 11 -19 25 -57 32 -85 11 -47 12 -48 13 -16 0 19 -10 59 -24 88 -14 30 -25 58 -25 64 0 16 44 -2 68 -28 12 -14 22 -20 22 -14 0 18 -48 57 -79 63 -21 5 -32 15 -40 39 -6 17 -21 43 -34 56 l-22 24 37 33 c21 17 38 37 38 42 0 25 -39 43 -96 44 -32 1 -51 3 -41 6 21 6 21 2 -3 63 -11 28 -20 58 -19 68 0 9 7 -1 15 -22 18 -50 16 -49 50 -34 19 8 97 12 234 12 193 1 207 2 247 24 56 29 69 58 76 169 8 113 35 191 78 222 17 13 41 46 54 75 12 28 39 90 60 138 l39 87 65 6 c36 3 73 7 81 9 20 3 -514 15 -945 21 -326 4 -336 4 -245 -10z m225 -102 c-4 -43 -6 -98 -4 -123 7 -110 4 -145 -12 -148 -15 -3 -16 12 -12 140 5 165 10 208 25 208 7 0 8 -24 3 -77z m723 -14 c-38 -72 -109 -146 -216 -227 -98 -73 -100 -74 -107 -62 -3 5 23 41 59 79 37 39 66 76 66 83 0 7 -20 54 -44 103 -24 50 -41 92 -39 95 3 3 73 7 156 10 115 4 153 2 155 -7 2 -7 -11 -40 -30 -74z m-441 74 l111 -6 21 -54 c12 -30 21 -67 21 -82 0 -33 -38 -87 -108 -155 -48 -47 -52 -48 -80 -37 -16 7 -60 15 -98 19 l-68 7 -19 60 c-10 33 -21 104 -24 158 l-6 97 69 0 c38 0 119 -3 181 -7z m-254 -987 c4 -10 1 -13 -9 -9 -15 6 -19 23 -5 23 5 0 11 -7 14 -14z"/>
 </g>

</svg>