<?xml version="1.0" standalone="no"?>
<!DOCTYPE svg PUBLIC "-//W3C//DTD SVG 20010904//EN"
 "http://www.w3.org/TR/2001/REC-SVG-20010904/DTD/svg10.dtd">
<svg version="1.0" xmlns="http://www.w3.org/2000/svg"
 width="400.000000pt" height="400.000000pt" viewBox="0 0 400.000000 400.000000"
 preserveAspectRatio="xMidYMid meet">
<metadata>
Created by potrace 1.11, written by Peter Selinger 2001-2013
</metadata>
<g transform="translate(0.000000,400.000000) scale(0.100000,-0.100000)"
fill="#000000" stroke="none">
<path d="M658 3668 c-26 -28 -57 -70 -69 -94 -41 -85 -62 -66 -56 49 5 76 -6
102 -20 50 -12 -43 -8 -251 6 -318 22 -101 55 -148 249 -348 101 -104 181
-191 178 -194 -8 -9 -55 25 -114 81 -50 48 -168 136 -182 136 -11 0 9 -158 24
-194 8 -20 44 -67 80 -105 36 -39 66 -73 66 -76 0 -3 -16 -38 -36 -77 -74
-146 -107 -368 -122 -808 l-7 -224 61 -76 c179 -222 222 -318 288 -645 29
-141 81 -494 73 -496 -1 0 -74 -11 -162 -24 -350 -51 -391 -58 -405 -66 -21
-12 364 -11 970 1 2015 41 2101 43 2088 55 -2 2 -66 8 -143 14 -196 16 -189
14 -213 69 -11 26 -57 130 -102 232 -45 102 -93 211 -106 242 -36 85 -85 157
-159 232 -107 108 -151 231 -180 496 -32 300 -44 346 -111 413 -45 45 -143 92
-218 106 -33 6 -170 11 -305 11 -403 1 -700 16 -772 40 -73 25 -79 22 -109
-63 -13 -34 -30 -69 -38 -77 -12 -13 -13 -11 -7 20 3 19 24 82 45 140 50 136
50 141 20 157 -14 7 -23 13 -20 13 125 8 236 22 268 35 43 18 82 56 82 82 0 8
-41 54 -92 103 l-92 88 42 48 c24 26 59 80 79 120 43 88 61 106 136 134 63 24
129 70 160 111 36 50 12 49 -43 -1 -57 -52 -128 -87 -154 -77 -18 7 -13 25 48
164 34 81 66 205 66 260 0 39 -14 17 -29 -47 -20 -84 -58 -188 -85 -235 -46
-78 -152 -155 -214 -155 -46 0 -66 31 -70 108 -5 86 18 183 68 293 22 47 42
101 46 120 5 33 5 33 -11 14 -9 -11 -26 -38 -37 -60 -29 -57 -77 -105 -106
-105 -30 0 -79 50 -122 125 -18 31 -34 54 -36 52 -2 -2 16 -48 42 -103 60
-129 111 -283 120 -361 6 -59 5 -63 -14 -63 -16 0 -24 -9 -32 -39 -11 -43 -72
-111 -98 -111 -36 1 -72 48 -72 94 0 21 -5 26 -26 26 -31 0 -145 53 -164 75
-16 20 -5 28 110 90 126 66 126 66 39 59 l-76 -7 -5 28 c-5 26 16 119 61 269
11 38 19 71 17 74 -8 7 -77 -146 -115 -256 -37 -106 -79 -182 -102 -182 -5 0
-32 22 -58 48 -122 123 -123 325 -1 503 22 33 37 59 33 59 -5 0 -29 -24 -55
-52z m602 -820 c-1 -18 -25 -48 -38 -48 -21 0 -24 21 -6 41 19 21 44 25 44 7z
m1032 -1610 c404 -279 682 -575 765 -816 16 -46 16 -54 3 -62 -36 -23 -737 -6
-762 18 -7 8 34 109 136 332 36 80 66 150 66 156 0 17 -68 106 -152 198 -100
109 -161 193 -154 211 8 22 16 20 98 -37z m-363 -58 c103 -81 284 -292 322
-375 33 -72 19 -169 -50 -345 l-29 -75 -109 -7 c-385 -24 -485 -28 -630 -28
l-163 0 0 37 c0 187 44 509 91 656 l29 95 78 7 c109 10 290 41 337 59 49 18
78 13 124 -24z m-763 -5 c14 -22 16 -75 19 -435 1 -225 -1 -410 -5 -410 -33 0
-46 97 -61 455 -11 266 -9 380 6 404 10 17 23 13 41 -14z"/>
</g>
</svg>
